<?xml version="1.0" encoding="UTF-8"?>
<svg xmlns="http://www.w3.org/2000/svg" xmlns:xlink="http://www.w3.org/1999/xlink" width="50pt" height="50pt" viewBox="0 0 50 50" version="1.1">
<g id="surface1">
<path style=" stroke:none;fill-rule:nonzero;fill:#FFFFFF;fill-opacity:1;" d="M 3.789063 5.683594 C 2.796875 5.683594 1.78125 6.03125 1.066406 6.746094 C 0.347656 7.464844 0 8.476563 0 9.46875 L 0 39.773438 C 0 40.765625 0.347656 41.777344 1.066406 42.496094 C 1.78125 43.210938 2.796875 43.5625 3.789063 43.5625 L 45.453125 43.5625 C 46.445313 43.5625 47.460938 43.210938 48.175781 42.496094 C 48.894531 41.777344 49.242188 40.765625 49.242188 39.773438 L 49.242188 13.257813 C 49.242188 12.265625 48.894531 11.253906 48.175781 10.535156 C 47.460938 9.816406 46.445313 9.46875 45.453125 9.46875 L 26.515625 9.46875 C 26.515625 8.476563 26.167969 7.464844 25.449219 6.746094 C 24.730469 6.03125 23.71875 5.683594 22.726563 5.683594 Z M 3.789063 9.46875 L 22.726563 9.46875 L 22.726563 13.257813 L 45.453125 13.257813 L 45.453125 39.773438 L 41.667969 39.773438 L 41.667969 37.878906 L 34.089844 37.878906 L 34.089844 39.773438 L 15.152344 39.773438 L 15.152344 37.878906 L 7.574219 37.878906 L 7.574219 39.773438 L 3.789063 39.773438 Z M 14.558594 15.152344 C 13.589844 15.171875 12.472656 15.640625 11.71875 16.867188 C 11.148438 18.007813 10.792969 19.6875 11.363281 21.011719 C 11.363281 21.203125 11.1875 21.03125 11.1875 21.601563 C 11.1875 22.171875 11.339844 23.121094 11.71875 23.496094 C 11.910156 23.6875 12.117188 23.851563 12.3125 23.851563 C 12.3125 23.851563 12.503906 24.976563 13.257813 25.921875 C 13.449219 26.679688 12.664063 27.105469 12.664063 27.105469 C 10.015625 27.675781 7.574219 29.140625 7.574219 30.65625 L 7.574219 31.84375 C 7.574219 33.542969 11.542969 33.875 15.328125 33.5 C 18.925781 33.5 22.90625 32.566406 22.90625 31.425781 L 22.90625 30.304688 C 22.90625 28.601563 20.464844 27.261719 17.816406 26.691406 C 17.816406 26.691406 16.652344 26.515625 17.222656 25.566406 C 17.792969 24.8125 18.171875 24.050781 18.171875 23.675781 C 18.171875 23.675781 19.117188 23.097656 19.117188 21.957031 C 19.117188 20.820313 18.9375 20.832031 18.9375 20.832031 C 19.316406 19.695313 19.53125 15.351563 16.691406 15.921875 C 16.410156 15.542969 15.527344 15.128906 14.558594 15.152344 Z M 26.515625 18.9375 L 26.515625 22.726563 L 41.667969 22.726563 L 41.667969 18.9375 Z M 26.515625 26.515625 L 26.515625 30.304688 L 41.667969 30.304688 L 41.667969 26.515625 Z "/>
</g>
</svg>
