<?xml version="1.0" encoding="UTF-8"?>
<svg xmlns="http://www.w3.org/2000/svg" xmlns:xlink="http://www.w3.org/1999/xlink" width="50pt" height="50pt" viewBox="0 0 50 50" version="1.1">
<g id="surface1">
<path style=" stroke:none;fill-rule:nonzero;fill:#FFBC00;fill-opacity:1;" d="M 24.90625 1.984375 C 24.667969 1.984375 24.429688 2.066406 24.238281 2.234375 L 21.390625 4.777344 L 17.660156 3.953125 C 17.164063 3.84375 16.664063 4.125 16.503906 4.609375 L 15.308594 8.234375 L 11.667969 9.386719 C 11.179688 9.535156 10.890625 10.03125 10.988281 10.53125 L 11.769531 14.273438 L 9.1875 17.085938 C 8.84375 17.464844 8.839844 18.039063 9.179688 18.417969 L 11.722656 21.265625 L 10.898438 25 C 10.785156 25.496094 11.066406 25.996094 11.550781 26.152344 L 15.179688 27.351563 L 16.328125 30.996094 C 16.480469 31.480469 16.976563 31.769531 17.472656 31.667969 L 21.21875 30.890625 L 24.03125 33.46875 C 24.21875 33.640625 24.464844 33.730469 24.703125 33.730469 C 24.9375 33.730469 25.171875 33.644531 25.363281 33.476563 L 28.210938 30.9375 L 31.945313 31.761719 C 32.441406 31.871094 32.941406 31.585938 33.097656 31.105469 L 34.292969 27.480469 L 37.933594 26.332031 C 38.421875 26.175781 38.714844 25.679688 38.613281 25.183594 L 37.835938 21.441406 L 40.414063 18.628906 C 40.761719 18.25 40.765625 17.675781 40.421875 17.296875 L 37.878906 14.445313 L 38.707031 10.714844 C 38.816406 10.21875 38.53125 9.71875 38.050781 9.558594 L 34.425781 8.363281 L 33.273438 4.71875 C 33.117188 4.234375 32.625 3.949219 32.125 4.046875 L 28.386719 4.824219 L 25.574219 2.242188 C 25.382813 2.074219 25.144531 1.984375 24.90625 1.984375 Z M 24.800781 6.945313 C 30.820313 6.945313 35.714844 11.839844 35.714844 17.855469 C 35.714844 23.875 30.820313 28.769531 24.800781 28.769531 C 18.785156 28.769531 13.890625 23.875 13.890625 17.855469 C 13.890625 11.839844 18.785156 6.945313 24.800781 6.945313 Z M 24.800781 8.929688 C 19.875 8.929688 15.871094 12.933594 15.871094 17.855469 C 15.871094 22.78125 19.875 26.785156 24.800781 26.785156 C 29.726563 26.785156 33.730469 22.78125 33.730469 17.855469 C 33.730469 12.933594 29.726563 8.929688 24.800781 8.929688 Z M 20.628906 33.035156 L 17.867188 33.609375 C 17.675781 33.648438 17.476563 33.667969 17.28125 33.667969 C 16.777344 33.667969 16.296875 33.542969 15.871094 33.316406 L 15.871094 46.628906 C 15.871094 46.972656 16.050781 47.289063 16.34375 47.472656 C 16.636719 47.652344 17 47.664063 17.3125 47.515625 L 24.800781 43.765625 L 32.292969 47.515625 C 32.4375 47.585938 32.585938 47.617188 32.738281 47.617188 C 32.921875 47.617188 33.101563 47.570313 33.261719 47.472656 C 33.550781 47.289063 33.730469 46.972656 33.730469 46.628906 L 33.730469 33.3125 C 33.269531 33.597656 32.726563 33.769531 32.152344 33.769531 C 31.945313 33.769531 31.730469 33.746094 31.511719 33.699219 L 28.773438 33.09375 L 26.679688 34.960938 C 26.132813 35.445313 25.433594 35.714844 24.703125 35.714844 C 23.957031 35.714844 23.242188 35.4375 22.695313 34.933594 Z "/>
</g>
</svg>
