<?xml version="1.0" encoding="UTF-8"?>
<svg xmlns="http://www.w3.org/2000/svg" xmlns:xlink="http://www.w3.org/1999/xlink" width="50pt" height="50pt" viewBox="0 0 50 50" version="1.1">
<g id="surface1">
<path style=" stroke:none;fill-rule:nonzero;fill:#0D0D0D;fill-opacity:1;" d="M 49.597656 27.71875 C 49.390625 24.1875 47.019531 23.066406 45.285156 22.246094 C 44.382813 21.816406 43.601563 21.449219 43.316406 20.875 C 43.273438 20.316406 43.277344 19.867188 43.28125 19.355469 L 43.28125 19.28125 C 43.777344 18.703125 44.195313 17.761719 44.394531 16.90625 C 44.832031 16.605469 45.289063 16.007813 45.4375 14.8125 C 45.507813 14.203125 45.367188 13.710938 45.144531 13.34375 C 45.484375 12.097656 46.023438 9.390625 44.886719 7.566406 C 44.390625 6.761719 43.628906 6.226563 42.664063 6 C 42.046875 5.324219 40.988281 4.960938 39.617188 4.960938 L 39.613281 4.960938 C 37.484375 5 35.914063 5.664063 34.945313 6.941406 C 33.847656 8.394531 33.609375 10.53125 34.242188 13.3125 C 34.003906 13.683594 33.855469 14.191406 33.929688 14.816406 C 34.074219 16.015625 34.535156 16.613281 34.972656 16.910156 C 35.179688 17.757813 35.609375 18.703125 36.113281 19.285156 L 36.113281 19.359375 C 36.117188 19.867188 36.121094 20.316406 36.078125 20.871094 C 35.941406 21.121094 35.664063 21.339844 35.269531 21.554688 C 34.339844 19.027344 32.167969 18.027344 30.527344 17.273438 C 29.554688 16.828125 28.710938 16.433594 28.4375 15.910156 C 28.394531 15.359375 28.398438 14.910156 28.402344 14.402344 L 28.40625 14.320313 C 28.898438 13.742188 29.320313 12.804688 29.519531 11.949219 C 29.953125 11.648438 30.414063 11.046875 30.554688 9.851563 C 30.628906 9.246094 30.492188 8.75 30.265625 8.382813 C 30.601563 7.136719 31.140625 4.429688 30.011719 2.609375 C 29.511719 1.804688 28.746094 1.265625 27.785156 1.039063 C 27.296875 0.507813 26.402344 0.015625 24.734375 0.015625 C 22.605469 0.0585938 21.03125 0.722656 20.066406 1.996094 C 18.964844 3.445313 18.734375 5.582031 19.363281 8.351563 C 19.128906 8.722656 18.976563 9.230469 19.050781 9.855469 C 19.195313 11.054688 19.65625 11.652344 20.097656 11.953125 C 20.296875 12.796875 20.734375 13.742188 21.234375 14.324219 L 21.234375 14.402344 C 21.238281 14.914063 21.238281 15.363281 21.199219 15.910156 C 20.921875 16.433594 20.074219 16.828125 19.097656 17.273438 C 17.449219 18.027344 15.273438 19.027344 14.339844 21.554688 C 13.941406 21.339844 13.660156 21.121094 13.527344 20.871094 C 13.484375 20.3125 13.488281 19.863281 13.492188 19.347656 L 13.492188 19.285156 C 13.992188 18.703125 14.425781 17.757813 14.628906 16.910156 C 15.066406 16.609375 15.527344 16.011719 15.675781 14.8125 C 15.75 14.1875 15.597656 13.679688 15.363281 13.308594 C 15.992188 10.53125 15.757813 8.390625 14.65625 6.941406 C 13.6875 5.664063 12.117188 5 9.972656 4.960938 C 8.609375 4.960938 7.558594 5.324219 6.941406 6 C 5.976563 6.226563 5.210938 6.765625 4.710938 7.566406 C 3.582031 9.390625 4.121094 12.097656 4.460938 13.34375 C 4.234375 13.710938 4.097656 14.207031 4.164063 14.816406 C 4.3125 16.011719 4.769531 16.609375 5.207031 16.910156 C 5.40625 17.765625 5.824219 18.703125 6.320313 19.28125 L 6.320313 19.359375 C 6.324219 19.871094 6.328125 20.320313 6.285156 20.878906 C 6.003906 21.449219 5.214844 21.820313 4.316406 22.246094 C 2.585938 23.066406 0.214844 24.1875 0 27.777344 L 0 38.691406 C 0 38.757813 0.0078125 38.820313 0.0195313 38.886719 C 0.078125 39.179688 1.535156 45.652344 11.433594 48.898438 C 11.433594 48.898438 11.59375 49.042969 12.878906 49.191406 C 12.875 48.753906 12.875 48.027344 12.914063 47.304688 C 13.285156 43.683594 16.203125 42.5 18.347656 41.628906 C 19.519531 41.15625 20.625 40.707031 20.953125 40.0625 C 21.003906 39.449219 20.996094 38.953125 20.992188 38.390625 L 20.992188 38.28125 C 20.441406 37.65625 19.960938 36.605469 19.746094 35.675781 C 19.28125 35.371094 18.777344 34.738281 18.621094 33.4375 C 18.539063 32.765625 18.710938 32.222656 18.964844 31.832031 C 18.273438 28.820313 18.519531 26.503906 19.710938 24.9375 C 20.746094 23.574219 22.429688 22.855469 24.714844 22.816406 C 26.199219 22.816406 27.332031 23.207031 27.984375 23.9375 C 29.023438 24.175781 29.847656 24.75 30.378906 25.609375 C 31.601563 27.582031 31.003906 30.535156 30.632813 31.863281 C 30.882813 32.253906 31.039063 32.785156 30.964844 33.441406 C 30.804688 34.738281 30.304688 35.371094 29.835938 35.675781 C 29.621094 36.605469 29.15625 37.652344 28.617188 38.273438 L 28.613281 38.390625 C 28.609375 38.953125 28.605469 39.445313 28.652344 40.0625 C 28.988281 40.710938 30.085938 41.160156 31.25 41.628906 C 33.402344 42.503906 36.328125 43.695313 36.675781 47.304688 C 36.71875 47.832031 36.707031 48.832031 36.699219 49.265625 C 37.632813 49.160156 37.691406 49.070313 37.691406 49.070313 C 48.042969 45.875 49.523438 39.191406 49.582031 38.886719 C 49.59375 38.820313 49.601563 38.757813 49.601563 38.691406 Z "/>
</g>
</svg>
