<?xml version="1.0" encoding="UTF-8"?>
<svg xmlns="http://www.w3.org/2000/svg" xmlns:xlink="http://www.w3.org/1999/xlink" width="50pt" height="50pt" viewBox="0 0 50 50" version="1.1">
<g id="surface1">
<path style=" stroke:none;fill-rule:nonzero;fill:#FFBC00;fill-opacity:1;" d="M 13.257813 0 C 9.085938 0 5.683594 3.402344 5.683594 7.574219 L 5.683594 41.667969 C 5.683594 45.839844 9.085938 49.242188 13.257813 49.242188 L 35.984375 49.242188 C 40.15625 49.242188 43.5625 45.839844 43.5625 41.667969 L 43.5625 15.152344 C 43.5625 13.140625 41.71875 11.230469 38.410156 7.988281 C 37.953125 7.539063 37.457031 7.035156 36.992188 6.570313 C 36.523438 6.101563 36.023438 5.667969 35.570313 5.207031 C 32.332031 1.902344 30.421875 0 28.410156 0 Z M 13.257813 3.789063 L 27.046875 3.789063 C 28.417969 4.136719 28.410156 5.777344 28.410156 7.457031 L 28.410156 13.257813 C 28.410156 14.300781 29.261719 15.152344 30.304688 15.152344 L 35.984375 15.152344 C 37.871094 15.152344 39.773438 15.160156 39.773438 17.046875 L 39.773438 41.667969 C 39.773438 43.761719 38.078125 45.453125 35.984375 45.453125 L 13.257813 45.453125 C 11.164063 45.453125 9.46875 43.761719 9.46875 41.667969 L 9.46875 7.574219 C 9.46875 5.480469 11.164063 3.789063 13.257813 3.789063 Z M 14.796875 18.9375 C 13.753906 19.035156 12.984375 19.96875 13.078125 21.011719 C 13.175781 22.054688 14.109375 22.824219 15.152344 22.726563 L 34.089844 22.726563 C 34.773438 22.734375 35.40625 22.378906 35.753906 21.789063 C 36.097656 21.195313 36.097656 20.472656 35.753906 19.878906 C 35.40625 19.289063 34.773438 18.933594 34.089844 18.9375 L 15.152344 18.9375 C 15.09375 18.9375 15.03125 18.9375 14.972656 18.9375 C 14.914063 18.9375 14.855469 18.9375 14.796875 18.9375 Z M 14.796875 26.515625 C 13.753906 26.609375 12.984375 27.542969 13.078125 28.585938 C 13.175781 29.628906 14.109375 30.398438 15.152344 30.304688 L 30.304688 30.304688 C 30.984375 30.308594 31.621094 29.957031 31.96875 29.363281 C 32.308594 28.773438 32.308594 28.046875 31.96875 27.453125 C 31.621094 26.863281 30.984375 26.507813 30.304688 26.515625 L 15.152344 26.515625 C 15.09375 26.515625 15.03125 26.515625 14.972656 26.515625 C 14.914063 26.515625 14.855469 26.515625 14.796875 26.515625 Z M 14.796875 34.089844 C 13.753906 34.1875 12.984375 35.121094 13.078125 36.164063 C 13.175781 37.207031 14.109375 37.976563 15.152344 37.878906 L 34.089844 37.878906 C 34.773438 37.886719 35.40625 37.53125 35.753906 36.9375 C 36.097656 36.347656 36.097656 35.621094 35.753906 35.03125 C 35.40625 34.4375 34.773438 34.082031 34.089844 34.089844 L 15.152344 34.089844 C 15.09375 34.089844 15.03125 34.089844 14.972656 34.089844 C 14.914063 34.089844 14.855469 34.089844 14.796875 34.089844 Z "/>
</g>
</svg>
