<?xml version="1.0" encoding="UTF-8"?>
<svg xmlns="http://www.w3.org/2000/svg" xmlns:xlink="http://www.w3.org/1999/xlink" width="50pt" height="50pt" viewBox="0 0 50 50" version="1.1">
<g id="surface1">
<path style=" stroke:none;fill-rule:nonzero;fill:#FFFFFF;fill-opacity:1;" d="M 24.800781 2.976563 C 12.75 2.976563 2.976563 12.75 2.976563 24.800781 C 2.976563 35.746094 11.035156 44.777344 21.539063 46.355469 L 21.539063 30.585938 L 16.140625 30.585938 L 16.140625 24.847656 L 21.539063 24.847656 L 21.539063 21.03125 C 21.539063 14.710938 24.621094 11.9375 29.871094 11.9375 C 32.390625 11.9375 33.71875 12.121094 34.347656 12.207031 L 34.347656 17.21875 L 30.765625 17.21875 C 28.535156 17.21875 27.753906 19.328125 27.753906 21.714844 L 27.753906 24.847656 L 34.292969 24.847656 L 33.40625 30.585938 L 27.753906 30.585938 L 27.753906 46.402344 C 38.40625 44.957031 46.628906 35.851563 46.628906 24.800781 C 46.628906 12.75 36.855469 2.976563 24.800781 2.976563 Z "/>
</g>
</svg>
