<?xml version="1.0" encoding="UTF-8"?>
<svg xmlns="http://www.w3.org/2000/svg" xmlns:xlink="http://www.w3.org/1999/xlink" width="50pt" height="50pt" viewBox="0 0 50 50" version="1.1">
<g id="surface1">
<path style=" stroke:none;fill-rule:nonzero;fill:#0D0D0D;fill-opacity:1;" d="M 7.9375 2.976563 C 7.390625 2.976563 6.945313 3.421875 6.945313 3.96875 L 6.945313 7.9375 C 6.945313 8.484375 7.390625 8.929688 7.9375 8.929688 L 10.914063 8.929688 L 10.914063 11.90625 C 10.914063 12.449219 11.359375 12.898438 11.90625 12.898438 L 12.898438 12.898438 L 12.898438 15.191406 C 12.898438 19.453125 15.453125 23.105469 19.097656 24.800781 C 15.453125 26.5 12.898438 30.148438 12.898438 34.414063 L 12.898438 36.707031 L 11.90625 36.707031 C 11.359375 36.707031 10.914063 37.148438 10.914063 37.699219 L 10.914063 40.675781 L 7.9375 40.675781 C 7.390625 40.675781 6.945313 41.117188 6.945313 41.667969 L 6.945313 45.636719 C 6.945313 46.183594 7.390625 46.628906 7.9375 46.628906 L 41.667969 46.628906 C 42.21875 46.628906 42.660156 46.183594 42.660156 45.636719 L 42.660156 41.667969 C 42.660156 41.117188 42.21875 40.675781 41.667969 40.675781 L 38.691406 40.675781 L 38.691406 37.699219 C 38.691406 37.148438 38.25 36.707031 37.699219 36.707031 L 36.707031 36.707031 L 36.707031 34.414063 C 36.707031 30.148438 34.148438 26.5 30.507813 24.800781 C 34.148438 23.105469 36.707031 19.453125 36.707031 15.191406 L 36.707031 12.898438 L 37.699219 12.898438 C 38.25 12.898438 38.691406 12.449219 38.691406 11.90625 L 38.691406 8.929688 L 41.667969 8.929688 C 42.21875 8.929688 42.660156 8.484375 42.660156 7.9375 L 42.660156 3.96875 C 42.660156 3.421875 42.21875 2.976563 41.667969 2.976563 Z M 14.882813 12.898438 L 34.722656 12.898438 L 34.722656 15.191406 C 34.722656 19.734375 31.144531 23.453125 26.691406 23.808594 C 26.148438 23.816406 25.714844 24.257813 25.714844 24.800781 C 25.714844 25.34375 26.148438 25.785156 26.691406 25.792969 C 31.144531 26.148438 34.722656 29.871094 34.722656 34.414063 L 34.722656 36.707031 L 14.882813 36.707031 L 14.882813 34.414063 C 14.882813 29.871094 18.457031 26.148438 22.910156 25.792969 C 23.453125 25.785156 23.886719 25.34375 23.886719 24.800781 C 23.886719 24.257813 23.453125 23.816406 22.910156 23.808594 C 18.457031 23.453125 14.882813 19.734375 14.882813 15.191406 Z M 17.855469 16.863281 C 17.855469 16.863281 19.644531 21.824219 24.800781 21.824219 C 29.960938 21.824219 31.746094 16.863281 31.746094 16.863281 Z M 24.800781 29.761719 C 20.78125 29.761719 18.589844 33.367188 17.578125 35.714844 L 32.023438 35.714844 C 31.011719 33.367188 28.820313 29.761719 24.800781 29.761719 Z "/>
</g>
</svg>
