<?xml version="1.0" encoding="UTF-8"?>
<svg xmlns="http://www.w3.org/2000/svg" xmlns:xlink="http://www.w3.org/1999/xlink" width="50pt" height="50pt" viewBox="0 0 50 50" version="1.1">
<g id="surface1">
<path style=" stroke:none;fill-rule:nonzero;fill:#FFFFFF;fill-opacity:1;" d="M 11.90625 2.976563 C 6.984375 2.976563 2.976563 6.984375 2.976563 11.90625 L 2.976563 37.699219 C 2.976563 42.621094 6.984375 46.628906 11.90625 46.628906 L 37.699219 46.628906 C 42.621094 46.628906 46.628906 42.621094 46.628906 37.699219 L 46.628906 11.90625 C 46.628906 6.984375 42.621094 2.976563 37.699219 2.976563 Z M 37.699219 7.9375 L 40.675781 7.9375 C 41.222656 7.9375 41.667969 8.382813 41.667969 8.929688 L 41.667969 11.90625 C 41.667969 12.449219 41.222656 12.898438 40.675781 12.898438 L 37.699219 12.898438 C 37.152344 12.898438 36.707031 12.449219 36.707031 11.90625 L 36.707031 8.929688 C 36.707031 8.382813 37.152344 7.9375 37.699219 7.9375 Z M 24.800781 9.921875 C 30.085938 9.921875 34.742188 12.699219 37.378906 16.863281 L 41.667969 16.863281 L 41.667969 36.707031 C 41.667969 39.445313 39.445313 41.667969 36.707031 41.667969 L 12.898438 41.667969 C 10.15625 41.667969 7.9375 39.445313 7.9375 36.707031 L 7.9375 16.863281 L 12.222656 16.863281 C 14.863281 12.699219 19.515625 9.921875 24.800781 9.921875 Z M 24.800781 11.90625 C 17.6875 11.90625 11.90625 17.6875 11.90625 24.800781 C 11.90625 31.917969 17.6875 37.699219 24.800781 37.699219 C 31.917969 37.699219 37.699219 31.917969 37.699219 24.800781 C 37.699219 17.6875 31.917969 11.90625 24.800781 11.90625 Z M 24.800781 15.871094 C 29.722656 15.871094 33.730469 19.878906 33.730469 24.800781 C 33.730469 29.722656 29.722656 33.730469 24.800781 33.730469 C 19.878906 33.730469 15.871094 29.722656 15.871094 24.800781 C 15.871094 19.878906 19.878906 15.871094 24.800781 15.871094 Z "/>
</g>
</svg>
