<?xml version="1.0" encoding="UTF-8"?>
<svg xmlns="http://www.w3.org/2000/svg" xmlns:xlink="http://www.w3.org/1999/xlink" width="50pt" height="50pt" viewBox="0 0 50 50" version="1.1">
<g id="surface1">
<path style=" stroke:none;fill-rule:nonzero;fill:#FFFFFF;fill-opacity:1;" d="M 22.816406 2.976563 C 22.269531 2.976563 21.824219 3.421875 21.824219 3.96875 L 21.824219 11.65625 L 17.855469 21.824219 L 17.855469 42.660156 C 18.269531 43.8125 19.539063 44.644531 20.832031 44.644531 L 39.683594 44.644531 C 41.871094 44.644531 43.652344 42.863281 43.652344 40.675781 C 43.652344 39.855469 43.390625 39.105469 42.96875 38.472656 C 44.515625 37.929688 45.636719 36.449219 45.636719 34.722656 C 45.636719 33.75 45.285156 32.871094 44.703125 32.179688 C 45.855469 31.488281 46.628906 30.210938 46.628906 28.769531 C 46.628906 27.796875 46.277344 26.917969 45.695313 26.226563 C 46.847656 25.535156 47.617188 24.257813 47.617188 22.816406 C 47.617188 20.628906 45.839844 18.847656 43.652344 18.847656 L 29.140625 18.847656 C 29.746094 16.933594 30.753906 13.507813 30.753906 11.90625 C 30.753906 8.167969 28.019531 2.976563 25.328125 2.976563 Z M 2.976563 18.847656 C 2.691406 18.847656 2.421875 18.976563 2.230469 19.191406 C 2.042969 19.402344 1.949219 19.683594 1.984375 19.964844 L 4.960938 43.773438 C 5.023438 44.269531 5.453125 44.644531 5.953125 44.644531 L 14.882813 44.644531 C 15.425781 44.644531 15.871094 44.199219 15.871094 43.652344 L 15.871094 19.839844 C 15.871094 19.292969 15.425781 18.847656 14.882813 18.847656 Z M 11.410156 37.699219 C 12.230469 37.699219 12.898438 38.363281 12.898438 39.1875 C 12.898438 40.007813 12.230469 40.675781 11.410156 40.675781 C 10.585938 40.675781 9.921875 40.007813 9.921875 39.1875 C 9.921875 38.363281 10.585938 37.699219 11.410156 37.699219 Z "/>
</g>
</svg>
