<?xml version="1.0" encoding="UTF-8"?>
<svg xmlns="http://www.w3.org/2000/svg" xmlns:xlink="http://www.w3.org/1999/xlink" width="50pt" height="50pt" viewBox="0 0 50 50" version="1.1">
<g id="surface1">
<path style=" stroke:none;fill-rule:nonzero;fill:#FFFFFF;fill-opacity:1;" d="M 40.675781 3.96875 L 8.929688 3.96875 C 6.1875 3.96875 3.96875 6.1875 3.96875 8.929688 L 3.96875 40.675781 C 3.96875 43.414063 6.1875 45.636719 8.929688 45.636719 L 40.675781 45.636719 C 43.414063 45.636719 45.636719 43.414063 45.636719 40.675781 L 45.636719 8.929688 C 45.636719 6.1875 43.414063 3.96875 40.675781 3.96875 Z M 16.863281 19.839844 L 16.863281 38.691406 L 10.914063 38.691406 L 10.914063 19.839844 Z M 10.914063 14.355469 C 10.914063 12.964844 12.101563 11.90625 13.890625 11.90625 C 15.675781 11.90625 16.796875 12.964844 16.863281 14.355469 C 16.863281 15.746094 15.753906 16.863281 13.890625 16.863281 C 12.101563 16.863281 10.914063 15.746094 10.914063 14.355469 Z M 38.691406 38.691406 L 32.738281 38.691406 C 32.738281 38.691406 32.738281 29.503906 32.738281 28.769531 C 32.738281 26.785156 31.746094 24.800781 29.265625 24.761719 L 29.1875 24.761719 C 26.785156 24.761719 25.792969 26.804688 25.792969 28.769531 C 25.792969 29.671875 25.792969 38.691406 25.792969 38.691406 L 19.839844 38.691406 L 19.839844 19.839844 L 25.792969 19.839844 L 25.792969 22.378906 C 25.792969 22.378906 27.707031 19.839844 31.554688 19.839844 C 35.496094 19.839844 38.691406 22.550781 38.691406 28.039063 Z "/>
</g>
</svg>
