<?xml version="1.0" encoding="UTF-8"?>
<svg xmlns="http://www.w3.org/2000/svg" xmlns:xlink="http://www.w3.org/1999/xlink" width="50pt" height="50pt" viewBox="0 0 50 50" version="1.1">
<g id="surface1">
<path style=" stroke:none;fill-rule:nonzero;fill:#FFFFFF;fill-opacity:1;" d="M 5.683594 0 C 2.546875 0 0 2.546875 0 5.683594 L 0 32.195313 C 0 35.332031 2.546875 37.878906 5.683594 37.878906 L 18.9375 37.878906 L 18.9375 39.773438 C 18.9375 40.816406 19.789063 41.667969 20.832031 41.667969 L 28.410156 41.667969 C 29.453125 41.667969 30.304688 40.691406 30.304688 39.773438 L 30.304688 37.878906 L 43.5625 37.878906 C 46.699219 37.878906 49.242188 35.332031 49.242188 32.195313 L 49.242188 5.683594 C 49.242188 2.546875 46.699219 0 43.5625 0 Z M 5.683594 3.789063 L 43.5625 3.789063 C 44.605469 3.789063 45.453125 4.640625 45.453125 5.683594 L 45.453125 28.410156 C 45.453125 29.453125 44.605469 30.304688 43.5625 30.304688 L 5.683594 30.304688 C 4.640625 30.304688 3.789063 29.453125 3.789063 28.410156 L 3.789063 5.683594 C 3.789063 4.640625 4.640625 3.789063 5.683594 3.789063 Z M 43.5625 32.136719 C 44.648438 32.136719 45.515625 33.011719 45.515625 34.089844 C 45.515625 35.179688 44.648438 36.042969 43.5625 36.042969 C 42.480469 36.042969 41.609375 35.179688 41.609375 34.089844 C 41.609375 33.011719 42.480469 32.136719 43.5625 32.136719 Z M 11.363281 43.5625 C 10.320313 43.5625 9.46875 45.453125 9.46875 45.453125 L 9.46875 47.347656 L 39.773438 47.347656 L 39.773438 45.453125 C 39.773438 44.410156 38.921875 43.5625 37.878906 43.5625 Z "/>
</g>
</svg>
