<?xml version="1.0" encoding="UTF-8"?>
<svg xmlns="http://www.w3.org/2000/svg" xmlns:xlink="http://www.w3.org/1999/xlink" width="50pt" height="50pt" viewBox="0 0 50 50" version="1.1">
<g id="surface1">
<path style=" stroke:none;fill-rule:nonzero;fill:#FFFFFF;fill-opacity:1;" d="M 11.460938 46.628906 C 10.902344 46.628906 10.164063 46.484375 9.382813 45.921875 C 9.320313 45.875 2.976563 41.234375 2.976563 38.691406 L 2.984375 38.539063 C 3.277344 32.535156 7.8125 25.113281 16.460938 16.460938 C 25.109375 7.816406 32.53125 3.28125 38.535156 2.984375 L 38.636719 2.980469 C 38.664063 2.980469 38.691406 2.976563 38.71875 2.976563 C 41.3125 2.976563 45.875 9.320313 45.921875 9.382813 C 47.097656 11.027344 46.667969 12.871094 45.605469 13.628906 C 44.910156 14.152344 37.578125 18.953125 36.683594 19.488281 C 35.722656 20.039063 34.40625 19.933594 33.230469 19.230469 C 32.53125 18.847656 30.359375 17.605469 29.351563 17.023438 C 28.453125 17.644531 26.25 19.308594 22.820313 22.804688 C 19.378906 26.242188 17.679688 28.453125 17.03125 29.359375 C 17.617188 30.375 18.855469 32.542969 19.25 33.265625 C 19.949219 34.546875 20.03125 35.875 19.464844 36.722656 C 18.960938 37.5625 14.070313 44.988281 13.628906 45.601563 C 13.234375 46.15625 12.558594 46.527344 11.789063 46.609375 C 11.6875 46.621094 11.578125 46.628906 11.460938 46.628906 Z "/>
</g>
</svg>
