<?xml version="1.0" encoding="UTF-8"?>
<svg xmlns="http://www.w3.org/2000/svg" xmlns:xlink="http://www.w3.org/1999/xlink" width="50pt" height="50pt" viewBox="0 0 50 50" version="1.1">
<g id="surface1">
<path style=" stroke:none;fill-rule:nonzero;fill:#0D0D0D;fill-opacity:1;" d="M 14.679688 1.894531 C 11.835938 1.894531 9.589844 4.203125 9.589844 7.042969 C 9.589844 9.441406 11.222656 11.394531 13.433594 11.957031 C 15.121094 12.746094 17.613281 13.976563 18.109375 14.972656 C 18.820313 16.253906 19.414063 18.605469 19.355469 20.417969 C 19.355469 20.441406 19.355469 20.457031 19.355469 20.476563 C 18.472656 21.714844 17.933594 23.238281 17.933594 24.859375 C 17.933594 29.023438 21.34375 32.433594 25.507813 32.433594 C 29.675781 32.433594 33.085938 29.023438 33.085938 24.859375 C 33.085938 20.691406 29.675781 17.089844 25.507813 17.28125 C 24.859375 17.28125 24.222656 17.363281 23.613281 17.519531 C 21.609375 16.691406 20.332031 15.300781 19.648438 14.203125 C 19.101563 13.324219 19.183594 11.039063 19.355469 9.171875 C 19.648438 8.53125 19.828125 7.804688 19.828125 7.042969 C 19.828125 4.203125 17.519531 1.894531 14.679688 1.894531 Z M 33.261719 1.894531 C 30.421875 1.894531 28.171875 4.203125 28.171875 7.042969 C 28.171875 9.882813 30.421875 12.132813 33.261719 12.132813 C 36.101563 12.132813 38.351563 9.882813 38.351563 7.042969 C 38.351563 4.203125 36.101563 1.894531 33.261719 1.894531 Z M 44.035156 17.992188 C 41.191406 17.992188 38.945313 20.300781 38.945313 23.140625 C 38.945313 25.984375 41.191406 28.230469 44.035156 28.230469 C 46.875 28.230469 49.183594 25.984375 49.183594 23.140625 C 49.183594 20.492188 46.875 17.992188 44.035156 17.992188 Z M 5.03125 18.761719 C 2.191406 18.761719 -0.0585938 21.070313 -0.0585938 23.910156 C -0.0585938 26.75 2.191406 29 5.03125 29 C 7.871094 29 10.179688 26.75 10.179688 23.910156 C 10.179688 21.261719 7.871094 18.953125 5.03125 18.761719 Z M 14.914063 35.984375 C 12.074219 35.984375 9.765625 38.292969 9.765625 41.132813 C 9.765625 43.976563 12.074219 46.222656 14.914063 46.222656 C 17.753906 46.222656 20.003906 43.976563 20.003906 41.132813 C 20.003906 38.292969 17.753906 35.984375 14.914063 35.984375 Z M 35.15625 35.984375 C 32.316406 35.984375 30.066406 38.292969 30.066406 41.132813 C 30.066406 43.976563 32.316406 46.222656 35.15625 46.222656 C 37.996094 46.222656 40.246094 43.976563 40.246094 41.132813 C 40.246094 38.292969 37.996094 35.984375 35.15625 35.984375 Z "/>
</g>
</svg>
