<?xml version="1.0" encoding="UTF-8"?>
<svg xmlns="http://www.w3.org/2000/svg" xmlns:xlink="http://www.w3.org/1999/xlink" width="50pt" height="50pt" viewBox="0 0 50 50" version="1.1">
<g id="surface1">
<path style=" stroke:none;fill-rule:nonzero;fill:#FFFFFF;fill-opacity:1;" d="M 49.664063 10.355469 C 47.832031 11.167969 45.867188 11.714844 43.800781 11.964844 C 45.910156 10.699219 47.53125 8.699219 48.289063 6.320313 C 46.320313 7.488281 44.132813 8.335938 41.808594 8.792969 C 39.949219 6.808594 37.300781 5.574219 34.367188 5.574219 C 28.730469 5.574219 24.164063 10.136719 24.164063 15.773438 C 24.164063 16.570313 24.253906 17.347656 24.429688 18.097656 C 15.949219 17.671875 8.4375 13.609375 3.402344 7.4375 C 2.523438 8.949219 2.023438 10.699219 2.023438 12.566406 C 2.023438 16.105469 3.820313 19.230469 6.5625 21.0625 C 4.886719 21.007813 3.3125 20.546875 1.9375 19.78125 C 1.9375 19.824219 1.9375 19.867188 1.9375 19.910156 C 1.9375 24.855469 5.457031 28.976563 10.117188 29.917969 C 9.265625 30.148438 8.363281 30.273438 7.433594 30.273438 C 6.773438 30.273438 6.132813 30.210938 5.511719 30.085938 C 6.8125 34.136719 10.578125 37.09375 15.039063 37.175781 C 11.550781 39.910156 7.152344 41.539063 2.371094 41.539063 C 1.546875 41.539063 0.734375 41.492188 -0.0585938 41.394531 C 4.453125 44.292969 9.816406 45.980469 15.578125 45.980469 C 34.34375 45.980469 44.605469 30.4375 44.605469 16.957031 C 44.605469 16.515625 44.59375 16.070313 44.578125 15.636719 C 46.570313 14.199219 48.296875 12.402344 49.664063 10.355469 Z "/>
</g>
</svg>
