<?xml version="1.0" encoding="UTF-8"?>
<svg xmlns="http://www.w3.org/2000/svg" xmlns:xlink="http://www.w3.org/1999/xlink" width="50pt" height="50pt" viewBox="0 0 50 50" version="1.1">
<g id="surface1">
<path style=" stroke:none;fill-rule:nonzero;fill:#FFFFFF;fill-opacity:1;" d="M 26.324219 0 C 14.582031 0 3.789063 7.382813 3.789063 23.296875 C 3.789063 36.175781 13.636719 49.242188 27.460938 49.242188 C 33.144531 49.242188 37.6875 44.507813 37.6875 38.824219 C 37.6875 37.308594 37.308594 35.792969 36.738281 34.285156 C 33.714844 26.324219 47.347656 28.601563 47.15625 14.203125 C 47.347656 9.847656 42.234375 0 26.324219 0 Z M 26.515625 3.789063 C 28.601563 3.789063 30.304688 5.875 30.304688 8.523438 C 30.304688 11.171875 28.601563 13.257813 26.515625 13.257813 C 24.429688 13.257813 22.726563 11.171875 22.726563 8.523438 C 22.726563 5.875 24.429688 3.789063 26.515625 3.789063 Z M 13.257813 32.195313 C 11.171875 32.195313 9.46875 30.109375 9.46875 27.460938 C 9.46875 24.8125 11.171875 22.726563 13.257813 22.726563 C 15.34375 22.726563 17.046875 24.8125 17.046875 27.460938 C 17.046875 30.109375 15.34375 32.195313 13.257813 32.195313 Z M 15.152344 18.9375 C 13.066406 18.9375 11.363281 16.851563 11.363281 14.203125 C 11.363281 11.554688 13.066406 9.46875 15.152344 9.46875 C 17.238281 9.46875 18.9375 11.554688 18.9375 14.203125 C 18.9375 16.851563 17.238281 18.9375 15.152344 18.9375 Z M 27.460938 43.5625 C 24.8125 43.5625 22.726563 41.472656 22.726563 38.824219 C 22.726563 36.175781 24.8125 34.089844 27.460938 34.089844 C 30.109375 34.089844 32.195313 36.175781 32.195313 38.824219 C 32.195313 41.472656 30.109375 43.5625 27.460938 43.5625 Z M 37.878906 18.9375 C 35.792969 18.9375 34.089844 16.851563 34.089844 14.203125 C 34.089844 11.554688 35.792969 9.46875 37.878906 9.46875 C 39.964844 9.46875 41.667969 11.554688 41.667969 14.203125 C 41.667969 16.851563 39.964844 18.9375 37.878906 18.9375 Z "/>
</g>
</svg>
